<mxfile host="app.diagrams.net" agent="Mozilla/5.0 (Windows NT 10.0; Win64; x64) AppleWebKit/537.36 (KHTML, like Gecko) Chrome/132.0.0.0 Safari/537.36" version="26.0.6">
  <diagram name="Page-1" id="2YBvvXClWsGukQMizWep">
    <mxGraphModel dx="1221" dy="725" grid="1" gridSize="10" guides="1" tooltips="1" connect="1" arrows="1" fold="1" page="1" pageScale="1" pageWidth="850" pageHeight="1100" math="0" shadow="0">
      <root>
        <mxCell id="0" />
        <mxCell id="1" parent="0" />
        <mxCell id="aM9ryv3xv72pqoxQDRHE-5" value="DRCce" style="shape=umlLifeline;perimeter=lifelinePerimeter;whiteSpace=wrap;html=1;container=0;dropTarget=0;collapsible=0;recursiveResize=0;outlineConnect=0;portConstraint=eastwest;newEdgeStyle={&quot;edgeStyle&quot;:&quot;elbowEdgeStyle&quot;,&quot;elbow&quot;:&quot;vertical&quot;,&quot;curved&quot;:0,&quot;rounded&quot;:0};" parent="1" vertex="1">
          <mxGeometry x="325" y="130" width="100" height="300" as="geometry" />
        </mxCell>
        <mxCell id="0b_3PiCQGs7h8GOq9YjQ-24" value="" style="edgeStyle=elbowEdgeStyle;rounded=0;orthogonalLoop=1;jettySize=auto;html=1;elbow=vertical;curved=0;dashed=1;" parent="1" edge="1">
          <mxGeometry relative="1" as="geometry">
            <mxPoint x="529.5" y="235" as="sourcePoint" />
            <mxPoint x="199.5" y="235" as="targetPoint" />
            <Array as="points">
              <mxPoint x="340" y="235" />
            </Array>
          </mxGeometry>
        </mxCell>
        <mxCell id="0b_3PiCQGs7h8GOq9YjQ-25" value="2.a: : API response" style="edgeLabel;html=1;align=center;verticalAlign=middle;resizable=0;points=[];" parent="0b_3PiCQGs7h8GOq9YjQ-24" vertex="1" connectable="0">
          <mxGeometry relative="1" as="geometry">
            <mxPoint as="offset" />
          </mxGeometry>
        </mxCell>
        <mxCell id="0b_3PiCQGs7h8GOq9YjQ-30" value="" style="edgeStyle=elbowEdgeStyle;rounded=0;orthogonalLoop=1;jettySize=auto;html=1;elbow=vertical;curved=0;dashed=1;" parent="1" target="0b_3PiCQGs7h8GOq9YjQ-26" edge="1">
          <mxGeometry relative="1" as="geometry">
            <mxPoint x="529.5" y="315" as="sourcePoint" />
            <mxPoint x="399.5" y="315" as="targetPoint" />
          </mxGeometry>
        </mxCell>
        <mxCell id="0b_3PiCQGs7h8GOq9YjQ-31" value="2.b: Upload result" style="edgeLabel;html=1;align=center;verticalAlign=middle;resizable=0;points=[];" parent="0b_3PiCQGs7h8GOq9YjQ-30" vertex="1" connectable="0">
          <mxGeometry relative="1" as="geometry">
            <mxPoint as="offset" />
          </mxGeometry>
        </mxCell>
        <mxCell id="0b_3PiCQGs7h8GOq9YjQ-1" value="CIM" style="shape=umlLifeline;perimeter=lifelinePerimeter;whiteSpace=wrap;html=1;container=0;dropTarget=0;collapsible=0;recursiveResize=0;outlineConnect=0;portConstraint=eastwest;newEdgeStyle={&quot;edgeStyle&quot;:&quot;elbowEdgeStyle&quot;,&quot;elbow&quot;:&quot;vertical&quot;,&quot;curved&quot;:0,&quot;rounded&quot;:0};" parent="1" vertex="1">
          <mxGeometry x="480" y="130" width="100" height="300" as="geometry" />
        </mxCell>
        <mxCell id="0b_3PiCQGs7h8GOq9YjQ-3" value="Actor" style="shape=umlActor;verticalLabelPosition=bottom;verticalAlign=top;html=1;outlineConnect=0;" parent="1" vertex="1">
          <mxGeometry x="40" y="130" width="30" height="60" as="geometry" />
        </mxCell>
        <mxCell id="0b_3PiCQGs7h8GOq9YjQ-6" value="" style="endArrow=none;dashed=1;html=1;dashPattern=1 3;strokeWidth=2;rounded=0;" parent="1" source="0b_3PiCQGs7h8GOq9YjQ-26" target="0b_3PiCQGs7h8GOq9YjQ-3" edge="1">
          <mxGeometry width="50" height="50" relative="1" as="geometry">
            <mxPoint x="55" y="430" as="sourcePoint" />
            <mxPoint x="450" y="250" as="targetPoint" />
            <Array as="points" />
          </mxGeometry>
        </mxCell>
        <mxCell id="0b_3PiCQGs7h8GOq9YjQ-11" value="mail bot" style="shape=umlLifeline;perimeter=lifelinePerimeter;whiteSpace=wrap;html=1;container=0;dropTarget=0;collapsible=0;recursiveResize=0;outlineConnect=0;portConstraint=eastwest;newEdgeStyle={&quot;edgeStyle&quot;:&quot;elbowEdgeStyle&quot;,&quot;elbow&quot;:&quot;vertical&quot;,&quot;curved&quot;:0,&quot;rounded&quot;:0};" parent="1" vertex="1">
          <mxGeometry x="150" y="130" width="100" height="300" as="geometry" />
        </mxCell>
        <mxCell id="0b_3PiCQGs7h8GOq9YjQ-12" value="" style="html=1;points=[];perimeter=orthogonalPerimeter;outlineConnect=0;targetShapes=umlLifeline;portConstraint=eastwest;newEdgeStyle={&quot;edgeStyle&quot;:&quot;elbowEdgeStyle&quot;,&quot;elbow&quot;:&quot;vertical&quot;,&quot;curved&quot;:0,&quot;rounded&quot;:0};" parent="0b_3PiCQGs7h8GOq9YjQ-11" vertex="1">
          <mxGeometry x="45" y="75" width="10" height="30" as="geometry" />
        </mxCell>
        <mxCell id="0b_3PiCQGs7h8GOq9YjQ-17" value="" style="endArrow=classic;html=1;rounded=0;" parent="1" source="0b_3PiCQGs7h8GOq9YjQ-12" edge="1">
          <mxGeometry width="50" height="50" relative="1" as="geometry">
            <mxPoint x="400" y="235" as="sourcePoint" />
            <mxPoint x="529.5" y="205" as="targetPoint" />
            <Array as="points">
              <mxPoint x="340" y="205" />
            </Array>
          </mxGeometry>
        </mxCell>
        <mxCell id="0b_3PiCQGs7h8GOq9YjQ-18" value="1.a: upload via API" style="edgeLabel;html=1;align=center;verticalAlign=middle;resizable=0;points=[];" parent="0b_3PiCQGs7h8GOq9YjQ-17" vertex="1" connectable="0">
          <mxGeometry relative="1" as="geometry">
            <mxPoint as="offset" />
          </mxGeometry>
        </mxCell>
        <mxCell id="0b_3PiCQGs7h8GOq9YjQ-27" value="" style="endArrow=none;dashed=1;html=1;dashPattern=1 3;strokeWidth=2;rounded=0;" parent="1" target="0b_3PiCQGs7h8GOq9YjQ-26" edge="1">
          <mxGeometry width="50" height="50" relative="1" as="geometry">
            <mxPoint x="55" y="430" as="sourcePoint" />
            <mxPoint x="55" y="190" as="targetPoint" />
            <Array as="points" />
          </mxGeometry>
        </mxCell>
        <mxCell id="0b_3PiCQGs7h8GOq9YjQ-28" value="" style="edgeStyle=elbowEdgeStyle;rounded=0;orthogonalLoop=1;jettySize=auto;html=1;elbow=vertical;curved=0;" parent="1" edge="1">
          <mxGeometry relative="1" as="geometry">
            <mxPoint x="60" y="305" as="sourcePoint" />
            <mxPoint x="530" y="285" as="targetPoint" />
            <Array as="points">
              <mxPoint x="275" y="285" />
            </Array>
          </mxGeometry>
        </mxCell>
        <mxCell id="0b_3PiCQGs7h8GOq9YjQ-29" value="1.b: Upload to CIM via UI" style="edgeLabel;html=1;align=center;verticalAlign=middle;resizable=0;points=[];" parent="0b_3PiCQGs7h8GOq9YjQ-28" vertex="1" connectable="0">
          <mxGeometry relative="1" as="geometry">
            <mxPoint as="offset" />
          </mxGeometry>
        </mxCell>
        <mxCell id="0b_3PiCQGs7h8GOq9YjQ-26" value="" style="html=1;points=[];perimeter=orthogonalPerimeter;outlineConnect=0;targetShapes=umlLifeline;portConstraint=eastwest;newEdgeStyle={&quot;edgeStyle&quot;:&quot;elbowEdgeStyle&quot;,&quot;elbow&quot;:&quot;vertical&quot;,&quot;curved&quot;:0,&quot;rounded&quot;:0};" parent="1" vertex="1">
          <mxGeometry x="50" y="285" width="10" height="30" as="geometry" />
        </mxCell>
        <mxCell id="0b_3PiCQGs7h8GOq9YjQ-32" value="Gov Portal" style="shape=umlLifeline;perimeter=lifelinePerimeter;whiteSpace=wrap;html=1;container=0;dropTarget=0;collapsible=0;recursiveResize=0;outlineConnect=0;portConstraint=eastwest;newEdgeStyle={&quot;edgeStyle&quot;:&quot;elbowEdgeStyle&quot;,&quot;elbow&quot;:&quot;vertical&quot;,&quot;curved&quot;:0,&quot;rounded&quot;:0};" parent="1" vertex="1">
          <mxGeometry x="50" y="670" width="100" height="300" as="geometry" />
        </mxCell>
        <mxCell id="0b_3PiCQGs7h8GOq9YjQ-33" value="DRCce" style="shape=umlLifeline;perimeter=lifelinePerimeter;whiteSpace=wrap;html=1;container=0;dropTarget=0;collapsible=0;recursiveResize=0;outlineConnect=0;portConstraint=eastwest;newEdgeStyle={&quot;edgeStyle&quot;:&quot;elbowEdgeStyle&quot;,&quot;elbow&quot;:&quot;vertical&quot;,&quot;curved&quot;:0,&quot;rounded&quot;:0};" parent="1" vertex="1">
          <mxGeometry x="250" y="670" width="100" height="300" as="geometry" />
        </mxCell>
        <mxCell id="0b_3PiCQGs7h8GOq9YjQ-34" value="" style="html=1;points=[];perimeter=orthogonalPerimeter;outlineConnect=0;targetShapes=umlLifeline;portConstraint=eastwest;newEdgeStyle={&quot;edgeStyle&quot;:&quot;elbowEdgeStyle&quot;,&quot;elbow&quot;:&quot;vertical&quot;,&quot;curved&quot;:0,&quot;rounded&quot;:0};" parent="0b_3PiCQGs7h8GOq9YjQ-33" vertex="1">
          <mxGeometry x="45" y="78" width="10" height="22" as="geometry" />
        </mxCell>
        <mxCell id="0b_3PiCQGs7h8GOq9YjQ-36" value="" style="edgeStyle=elbowEdgeStyle;rounded=0;orthogonalLoop=1;jettySize=auto;html=1;elbow=vertical;curved=0;dashed=1;dashPattern=8 8;" parent="0b_3PiCQGs7h8GOq9YjQ-33" edge="1">
          <mxGeometry relative="1" as="geometry">
            <mxPoint x="-77.5" y="100" as="sourcePoint" />
            <mxPoint x="50" y="100" as="targetPoint" />
            <Array as="points">
              <mxPoint x="-10" y="100" />
            </Array>
          </mxGeometry>
        </mxCell>
        <mxCell id="0b_3PiCQGs7h8GOq9YjQ-37" value="2: NF-e returned" style="edgeLabel;html=1;align=center;verticalAlign=middle;resizable=0;points=[];" parent="0b_3PiCQGs7h8GOq9YjQ-36" vertex="1" connectable="0">
          <mxGeometry relative="1" as="geometry">
            <mxPoint as="offset" />
          </mxGeometry>
        </mxCell>
        <mxCell id="0b_3PiCQGs7h8GOq9YjQ-39" value="" style="endArrow=classic;html=1;rounded=0;" parent="0b_3PiCQGs7h8GOq9YjQ-33" edge="1">
          <mxGeometry width="50" height="50" relative="1" as="geometry">
            <mxPoint x="45" y="78" as="sourcePoint" />
            <mxPoint x="-77.5" y="78" as="targetPoint" />
          </mxGeometry>
        </mxCell>
        <mxCell id="0b_3PiCQGs7h8GOq9YjQ-40" value="1.a: pull NF-e" style="edgeLabel;html=1;align=center;verticalAlign=middle;resizable=0;points=[];" parent="0b_3PiCQGs7h8GOq9YjQ-39" vertex="1" connectable="0">
          <mxGeometry relative="1" as="geometry">
            <mxPoint as="offset" />
          </mxGeometry>
        </mxCell>
        <mxCell id="0b_3PiCQGs7h8GOq9YjQ-35" value="CIM" style="shape=umlLifeline;perimeter=lifelinePerimeter;whiteSpace=wrap;html=1;container=0;dropTarget=0;collapsible=0;recursiveResize=0;outlineConnect=0;portConstraint=eastwest;newEdgeStyle={&quot;edgeStyle&quot;:&quot;elbowEdgeStyle&quot;,&quot;elbow&quot;:&quot;vertical&quot;,&quot;curved&quot;:0,&quot;rounded&quot;:0};" parent="1" vertex="1">
          <mxGeometry x="480" y="670" width="100" height="300" as="geometry" />
        </mxCell>
        <mxCell id="0b_3PiCQGs7h8GOq9YjQ-59" value="" style="edgeStyle=elbowEdgeStyle;rounded=0;orthogonalLoop=1;jettySize=auto;html=1;elbow=vertical;curved=0;" parent="1" target="0b_3PiCQGs7h8GOq9YjQ-62" edge="1">
          <mxGeometry relative="1" as="geometry">
            <mxPoint x="1189.5" y="341" as="sourcePoint" />
            <Array as="points">
              <mxPoint x="1130" y="341" />
            </Array>
          </mxGeometry>
        </mxCell>
        <mxCell id="0b_3PiCQGs7h8GOq9YjQ-64" value="1.c: pull NF-e" style="edgeLabel;html=1;align=center;verticalAlign=middle;resizable=0;points=[];" parent="0b_3PiCQGs7h8GOq9YjQ-59" vertex="1" connectable="0">
          <mxGeometry relative="1" as="geometry">
            <mxPoint as="offset" />
          </mxGeometry>
        </mxCell>
        <mxCell id="0b_3PiCQGs7h8GOq9YjQ-41" value="DRCce" style="shape=umlLifeline;perimeter=lifelinePerimeter;whiteSpace=wrap;html=1;container=0;dropTarget=0;collapsible=0;recursiveResize=0;outlineConnect=0;portConstraint=eastwest;newEdgeStyle={&quot;edgeStyle&quot;:&quot;elbowEdgeStyle&quot;,&quot;elbow&quot;:&quot;vertical&quot;,&quot;curved&quot;:0,&quot;rounded&quot;:0};" parent="1" vertex="1">
          <mxGeometry x="1140" y="130" width="100" height="690" as="geometry" />
        </mxCell>
        <mxCell id="0b_3PiCQGs7h8GOq9YjQ-66" value="" style="html=1;points=[];perimeter=orthogonalPerimeter;outlineConnect=0;targetShapes=umlLifeline;portConstraint=eastwest;newEdgeStyle={&quot;edgeStyle&quot;:&quot;elbowEdgeStyle&quot;,&quot;elbow&quot;:&quot;vertical&quot;,&quot;curved&quot;:0,&quot;rounded&quot;:0};" parent="0b_3PiCQGs7h8GOq9YjQ-41" vertex="1">
          <mxGeometry x="45" y="271" width="10" height="30" as="geometry" />
        </mxCell>
        <mxCell id="0b_3PiCQGs7h8GOq9YjQ-70" value="" style="html=1;points=[];perimeter=orthogonalPerimeter;outlineConnect=0;targetShapes=umlLifeline;portConstraint=eastwest;newEdgeStyle={&quot;edgeStyle&quot;:&quot;elbowEdgeStyle&quot;,&quot;elbow&quot;:&quot;vertical&quot;,&quot;curved&quot;:0,&quot;rounded&quot;:0};" parent="0b_3PiCQGs7h8GOq9YjQ-41" vertex="1">
          <mxGeometry x="45" y="341" width="10" height="70" as="geometry" />
        </mxCell>
        <mxCell id="0b_3PiCQGs7h8GOq9YjQ-71" value="" style="edgeStyle=orthogonalEdgeStyle;rounded=0;orthogonalLoop=1;jettySize=auto;html=1;elbow=vertical;" parent="0b_3PiCQGs7h8GOq9YjQ-41" target="0b_3PiCQGs7h8GOq9YjQ-70" edge="1">
          <mxGeometry relative="1" as="geometry">
            <mxPoint x="49.5" y="321" as="sourcePoint" />
            <Array as="points">
              <mxPoint x="120" y="321" />
              <mxPoint x="120" y="351" />
            </Array>
          </mxGeometry>
        </mxCell>
        <mxCell id="0b_3PiCQGs7h8GOq9YjQ-72" value="4: check sig and validity" style="edgeLabel;html=1;align=center;verticalAlign=middle;resizable=0;points=[];" parent="0b_3PiCQGs7h8GOq9YjQ-71" vertex="1" connectable="0">
          <mxGeometry relative="1" as="geometry">
            <mxPoint as="offset" />
          </mxGeometry>
        </mxCell>
        <mxCell id="0b_3PiCQGs7h8GOq9YjQ-78" value="" style="html=1;points=[];perimeter=orthogonalPerimeter;outlineConnect=0;targetShapes=umlLifeline;portConstraint=eastwest;newEdgeStyle={&quot;edgeStyle&quot;:&quot;elbowEdgeStyle&quot;,&quot;elbow&quot;:&quot;vertical&quot;,&quot;curved&quot;:0,&quot;rounded&quot;:0};" parent="0b_3PiCQGs7h8GOq9YjQ-41" vertex="1">
          <mxGeometry x="45" y="441" width="10" height="30" as="geometry" />
        </mxCell>
        <mxCell id="0b_3PiCQGs7h8GOq9YjQ-82" value="" style="html=1;points=[];perimeter=orthogonalPerimeter;outlineConnect=0;targetShapes=umlLifeline;portConstraint=eastwest;newEdgeStyle={&quot;edgeStyle&quot;:&quot;elbowEdgeStyle&quot;,&quot;elbow&quot;:&quot;vertical&quot;,&quot;curved&quot;:0,&quot;rounded&quot;:0};" parent="0b_3PiCQGs7h8GOq9YjQ-41" vertex="1">
          <mxGeometry x="45" y="501" width="10" height="160" as="geometry" />
        </mxCell>
        <mxCell id="0b_3PiCQGs7h8GOq9YjQ-42" value="" style="edgeStyle=elbowEdgeStyle;rounded=0;orthogonalLoop=1;jettySize=auto;html=1;elbow=vertical;curved=0;dashed=1;" parent="1" source="0b_3PiCQGs7h8GOq9YjQ-46" target="0b_3PiCQGs7h8GOq9YjQ-49" edge="1">
          <mxGeometry relative="1" as="geometry">
            <mxPoint x="1309.5" y="230" as="sourcePoint" />
            <mxPoint x="899.5" y="230" as="targetPoint" />
            <Array as="points">
              <mxPoint x="1040" y="230" />
            </Array>
          </mxGeometry>
        </mxCell>
        <mxCell id="0b_3PiCQGs7h8GOq9YjQ-43" value="2.a: : API response" style="edgeLabel;html=1;align=center;verticalAlign=middle;resizable=0;points=[];" parent="0b_3PiCQGs7h8GOq9YjQ-42" vertex="1" connectable="0">
          <mxGeometry relative="1" as="geometry">
            <mxPoint as="offset" />
          </mxGeometry>
        </mxCell>
        <mxCell id="0b_3PiCQGs7h8GOq9YjQ-44" value="" style="edgeStyle=elbowEdgeStyle;rounded=0;orthogonalLoop=1;jettySize=auto;html=1;elbow=vertical;curved=0;dashed=1;" parent="1" source="0b_3PiCQGs7h8GOq9YjQ-46" edge="1">
          <mxGeometry relative="1" as="geometry">
            <mxPoint x="1309.5" y="291" as="sourcePoint" />
            <mxPoint x="760" y="291" as="targetPoint" />
          </mxGeometry>
        </mxCell>
        <mxCell id="0b_3PiCQGs7h8GOq9YjQ-45" value="2.b: Upload result" style="edgeLabel;html=1;align=center;verticalAlign=middle;resizable=0;points=[];" parent="0b_3PiCQGs7h8GOq9YjQ-44" vertex="1" connectable="0">
          <mxGeometry relative="1" as="geometry">
            <mxPoint as="offset" />
          </mxGeometry>
        </mxCell>
        <mxCell id="0b_3PiCQGs7h8GOq9YjQ-68" value="" style="edgeStyle=elbowEdgeStyle;rounded=0;orthogonalLoop=1;jettySize=auto;html=1;elbow=horizontal;curved=0;" parent="1" edge="1">
          <mxGeometry relative="1" as="geometry">
            <mxPoint x="1325.5" y="401" as="sourcePoint" />
            <mxPoint x="1189.5" y="401" as="targetPoint" />
            <Array as="points">
              <mxPoint x="1260" y="401" />
            </Array>
          </mxGeometry>
        </mxCell>
        <mxCell id="0b_3PiCQGs7h8GOq9YjQ-69" value="&amp;nbsp;3: push via CEP" style="edgeLabel;html=1;align=center;verticalAlign=middle;resizable=0;points=[];" parent="0b_3PiCQGs7h8GOq9YjQ-68" vertex="1" connectable="0">
          <mxGeometry relative="1" as="geometry">
            <mxPoint as="offset" />
          </mxGeometry>
        </mxCell>
        <mxCell id="0b_3PiCQGs7h8GOq9YjQ-46" value="CIM" style="shape=umlLifeline;perimeter=lifelinePerimeter;whiteSpace=wrap;html=1;container=0;dropTarget=0;collapsible=0;recursiveResize=0;outlineConnect=0;portConstraint=eastwest;newEdgeStyle={&quot;edgeStyle&quot;:&quot;elbowEdgeStyle&quot;,&quot;elbow&quot;:&quot;vertical&quot;,&quot;curved&quot;:0,&quot;rounded&quot;:0};" parent="1" vertex="1">
          <mxGeometry x="1276" y="130" width="100" height="720" as="geometry" />
        </mxCell>
        <mxCell id="0b_3PiCQGs7h8GOq9YjQ-90" value="" style="html=1;points=[];perimeter=orthogonalPerimeter;outlineConnect=0;targetShapes=umlLifeline;portConstraint=eastwest;newEdgeStyle={&quot;edgeStyle&quot;:&quot;elbowEdgeStyle&quot;,&quot;elbow&quot;:&quot;vertical&quot;,&quot;curved&quot;:0,&quot;rounded&quot;:0};" parent="0b_3PiCQGs7h8GOq9YjQ-46" vertex="1">
          <mxGeometry x="45" y="569" width="10" height="91" as="geometry" />
        </mxCell>
        <mxCell id="0b_3PiCQGs7h8GOq9YjQ-91" value="" style="edgeStyle=orthogonalEdgeStyle;rounded=0;orthogonalLoop=1;jettySize=auto;html=1;elbow=vertical;" parent="0b_3PiCQGs7h8GOq9YjQ-46" source="0b_3PiCQGs7h8GOq9YjQ-90" target="0b_3PiCQGs7h8GOq9YjQ-90" edge="1">
          <mxGeometry relative="1" as="geometry">
            <mxPoint x="64" y="611" as="sourcePoint" />
            <mxPoint x="59" y="641" as="targetPoint" />
            <Array as="points">
              <mxPoint x="124" y="611" />
              <mxPoint x="124" y="641" />
            </Array>
          </mxGeometry>
        </mxCell>
        <mxCell id="0b_3PiCQGs7h8GOq9YjQ-92" value="&lt;font style=&quot;font-size: 9px;&quot;&gt;9: map canonical UBL to OneInvoice&lt;/font&gt;" style="edgeLabel;html=1;align=center;verticalAlign=middle;resizable=0;points=[];" parent="0b_3PiCQGs7h8GOq9YjQ-91" vertex="1" connectable="0">
          <mxGeometry relative="1" as="geometry">
            <mxPoint as="offset" />
          </mxGeometry>
        </mxCell>
        <mxCell id="0b_3PiCQGs7h8GOq9YjQ-47" value="Actor" style="shape=umlActor;verticalLabelPosition=bottom;verticalAlign=top;html=1;outlineConnect=0;" parent="1" vertex="1">
          <mxGeometry x="740" y="130" width="30" height="60" as="geometry" />
        </mxCell>
        <mxCell id="0b_3PiCQGs7h8GOq9YjQ-48" value="" style="endArrow=none;dashed=1;html=1;dashPattern=1 3;strokeWidth=2;rounded=0;" parent="1" source="0b_3PiCQGs7h8GOq9YjQ-56" target="0b_3PiCQGs7h8GOq9YjQ-47" edge="1">
          <mxGeometry width="50" height="50" relative="1" as="geometry">
            <mxPoint x="755" y="430" as="sourcePoint" />
            <mxPoint x="1150" y="250" as="targetPoint" />
            <Array as="points" />
          </mxGeometry>
        </mxCell>
        <mxCell id="0b_3PiCQGs7h8GOq9YjQ-49" value="mail bot" style="shape=umlLifeline;perimeter=lifelinePerimeter;whiteSpace=wrap;html=1;container=0;dropTarget=0;collapsible=0;recursiveResize=0;outlineConnect=0;portConstraint=eastwest;newEdgeStyle={&quot;edgeStyle&quot;:&quot;elbowEdgeStyle&quot;,&quot;elbow&quot;:&quot;vertical&quot;,&quot;curved&quot;:0,&quot;rounded&quot;:0};" parent="1" vertex="1">
          <mxGeometry x="850" y="130" width="100" height="300" as="geometry" />
        </mxCell>
        <mxCell id="0b_3PiCQGs7h8GOq9YjQ-50" value="" style="html=1;points=[];perimeter=orthogonalPerimeter;outlineConnect=0;targetShapes=umlLifeline;portConstraint=eastwest;newEdgeStyle={&quot;edgeStyle&quot;:&quot;elbowEdgeStyle&quot;,&quot;elbow&quot;:&quot;vertical&quot;,&quot;curved&quot;:0,&quot;rounded&quot;:0};" parent="0b_3PiCQGs7h8GOq9YjQ-49" vertex="1">
          <mxGeometry x="45" y="70" width="10" height="30" as="geometry" />
        </mxCell>
        <mxCell id="0b_3PiCQGs7h8GOq9YjQ-51" value="" style="endArrow=classic;html=1;rounded=0;" parent="1" source="0b_3PiCQGs7h8GOq9YjQ-50" target="0b_3PiCQGs7h8GOq9YjQ-46" edge="1">
          <mxGeometry width="50" height="50" relative="1" as="geometry">
            <mxPoint x="1100" y="230" as="sourcePoint" />
            <mxPoint x="1309.5" y="200" as="targetPoint" />
            <Array as="points">
              <mxPoint x="1040" y="200" />
            </Array>
          </mxGeometry>
        </mxCell>
        <mxCell id="0b_3PiCQGs7h8GOq9YjQ-52" value="1.a: upload via API" style="edgeLabel;html=1;align=center;verticalAlign=middle;resizable=0;points=[];" parent="0b_3PiCQGs7h8GOq9YjQ-51" vertex="1" connectable="0">
          <mxGeometry relative="1" as="geometry">
            <mxPoint as="offset" />
          </mxGeometry>
        </mxCell>
        <mxCell id="0b_3PiCQGs7h8GOq9YjQ-53" value="" style="endArrow=none;dashed=1;html=1;dashPattern=1 3;strokeWidth=2;rounded=0;" parent="1" target="0b_3PiCQGs7h8GOq9YjQ-56" edge="1">
          <mxGeometry width="50" height="50" relative="1" as="geometry">
            <mxPoint x="755" y="430" as="sourcePoint" />
            <mxPoint x="755" y="190" as="targetPoint" />
            <Array as="points" />
          </mxGeometry>
        </mxCell>
        <mxCell id="0b_3PiCQGs7h8GOq9YjQ-54" value="" style="edgeStyle=elbowEdgeStyle;rounded=0;orthogonalLoop=1;jettySize=auto;html=1;elbow=vertical;curved=0;" parent="1" target="0b_3PiCQGs7h8GOq9YjQ-46" edge="1">
          <mxGeometry relative="1" as="geometry">
            <mxPoint x="760" y="282" as="sourcePoint" />
            <mxPoint x="1309.5" y="262" as="targetPoint" />
            <Array as="points">
              <mxPoint x="975" y="262" />
            </Array>
          </mxGeometry>
        </mxCell>
        <mxCell id="0b_3PiCQGs7h8GOq9YjQ-55" value="1.b: Upload to CIM via UI" style="edgeLabel;html=1;align=center;verticalAlign=middle;resizable=0;points=[];" parent="0b_3PiCQGs7h8GOq9YjQ-54" vertex="1" connectable="0">
          <mxGeometry relative="1" as="geometry">
            <mxPoint as="offset" />
          </mxGeometry>
        </mxCell>
        <mxCell id="0b_3PiCQGs7h8GOq9YjQ-56" value="" style="html=1;points=[];perimeter=orthogonalPerimeter;outlineConnect=0;targetShapes=umlLifeline;portConstraint=eastwest;newEdgeStyle={&quot;edgeStyle&quot;:&quot;elbowEdgeStyle&quot;,&quot;elbow&quot;:&quot;vertical&quot;,&quot;curved&quot;:0,&quot;rounded&quot;:0};" parent="1" vertex="1">
          <mxGeometry x="750" y="262" width="10" height="30" as="geometry" />
        </mxCell>
        <mxCell id="0b_3PiCQGs7h8GOq9YjQ-76" value="" style="edgeStyle=elbowEdgeStyle;rounded=0;orthogonalLoop=1;jettySize=auto;html=1;elbow=vertical;curved=0;dashed=1;endArrow=classic;endFill=1;" parent="1" target="0b_3PiCQGs7h8GOq9YjQ-70" edge="1">
          <mxGeometry relative="1" as="geometry">
            <mxPoint x="1049.5" y="521" as="sourcePoint" />
            <mxPoint x="1180" y="521" as="targetPoint" />
            <Array as="points">
              <mxPoint x="1120" y="521" />
            </Array>
          </mxGeometry>
        </mxCell>
        <mxCell id="0b_3PiCQGs7h8GOq9YjQ-77" value="6: status check result" style="edgeLabel;html=1;align=center;verticalAlign=middle;resizable=0;points=[];" parent="0b_3PiCQGs7h8GOq9YjQ-76" vertex="1" connectable="0">
          <mxGeometry relative="1" as="geometry">
            <mxPoint as="offset" />
          </mxGeometry>
        </mxCell>
        <mxCell id="0b_3PiCQGs7h8GOq9YjQ-57" value="Gov Portal" style="shape=umlLifeline;perimeter=lifelinePerimeter;whiteSpace=wrap;html=1;container=0;dropTarget=0;collapsible=0;recursiveResize=0;outlineConnect=0;portConstraint=eastwest;newEdgeStyle={&quot;edgeStyle&quot;:&quot;elbowEdgeStyle&quot;,&quot;elbow&quot;:&quot;vertical&quot;,&quot;curved&quot;:0,&quot;rounded&quot;:0};" parent="1" vertex="1">
          <mxGeometry x="1000" y="130" width="100" height="460" as="geometry" />
        </mxCell>
        <mxCell id="0b_3PiCQGs7h8GOq9YjQ-62" value="" style="html=1;points=[];perimeter=orthogonalPerimeter;outlineConnect=0;targetShapes=umlLifeline;portConstraint=eastwest;newEdgeStyle={&quot;edgeStyle&quot;:&quot;elbowEdgeStyle&quot;,&quot;elbow&quot;:&quot;vertical&quot;,&quot;curved&quot;:0,&quot;rounded&quot;:0};" parent="0b_3PiCQGs7h8GOq9YjQ-57" vertex="1">
          <mxGeometry x="45" y="211" width="10" height="30" as="geometry" />
        </mxCell>
        <mxCell id="0b_3PiCQGs7h8GOq9YjQ-63" value="" style="edgeStyle=elbowEdgeStyle;rounded=0;orthogonalLoop=1;jettySize=auto;html=1;elbow=horizontal;curved=0;dashed=1;" parent="1" source="0b_3PiCQGs7h8GOq9YjQ-62" edge="1">
          <mxGeometry relative="1" as="geometry">
            <mxPoint x="1189.5" y="371" as="targetPoint" />
            <Array as="points">
              <mxPoint x="1120" y="371" />
            </Array>
          </mxGeometry>
        </mxCell>
        <mxCell id="0b_3PiCQGs7h8GOq9YjQ-65" value="2.c: NF-e returned" style="edgeLabel;html=1;align=center;verticalAlign=middle;resizable=0;points=[];" parent="0b_3PiCQGs7h8GOq9YjQ-63" vertex="1" connectable="0">
          <mxGeometry relative="1" as="geometry">
            <mxPoint as="offset" />
          </mxGeometry>
        </mxCell>
        <mxCell id="0b_3PiCQGs7h8GOq9YjQ-74" value="" style="edgeStyle=elbowEdgeStyle;rounded=0;orthogonalLoop=1;jettySize=auto;html=1;elbow=vertical;curved=0;" parent="1" edge="1">
          <mxGeometry relative="1" as="geometry">
            <mxPoint x="1185" y="501" as="sourcePoint" />
            <mxPoint x="1049.5" y="501" as="targetPoint" />
          </mxGeometry>
        </mxCell>
        <mxCell id="0b_3PiCQGs7h8GOq9YjQ-75" value="&lt;font style=&quot;font-size: 8px;&quot;&gt;5: Authorization status check&lt;/font&gt;" style="edgeLabel;html=1;align=center;verticalAlign=middle;resizable=0;points=[];" parent="0b_3PiCQGs7h8GOq9YjQ-74" vertex="1" connectable="0">
          <mxGeometry relative="1" as="geometry">
            <mxPoint as="offset" />
          </mxGeometry>
        </mxCell>
        <mxCell id="0b_3PiCQGs7h8GOq9YjQ-79" value="" style="edgeStyle=orthogonalEdgeStyle;rounded=0;orthogonalLoop=1;jettySize=auto;html=1;elbow=vertical;" parent="1" edge="1">
          <mxGeometry relative="1" as="geometry">
            <mxPoint x="1190" y="551" as="sourcePoint" />
            <mxPoint x="1195" y="581" as="targetPoint" />
            <Array as="points">
              <mxPoint x="1260" y="551" />
              <mxPoint x="1260" y="581" />
            </Array>
          </mxGeometry>
        </mxCell>
        <mxCell id="0b_3PiCQGs7h8GOq9YjQ-80" value="7: map to canonical UBL" style="edgeLabel;html=1;align=center;verticalAlign=middle;resizable=0;points=[];" parent="0b_3PiCQGs7h8GOq9YjQ-79" vertex="1" connectable="0">
          <mxGeometry relative="1" as="geometry">
            <mxPoint as="offset" />
          </mxGeometry>
        </mxCell>
        <mxCell id="0b_3PiCQGs7h8GOq9YjQ-95" value="" style="edgeStyle=elbowEdgeStyle;rounded=0;orthogonalLoop=1;jettySize=auto;html=1;elbow=vertical;curved=0;dashed=1;" parent="1" target="0b_3PiCQGs7h8GOq9YjQ-82" edge="1">
          <mxGeometry relative="1" as="geometry">
            <mxPoint x="1459.5" y="651" as="sourcePoint" />
            <mxPoint x="1325.5" y="651" as="targetPoint" />
          </mxGeometry>
        </mxCell>
        <mxCell id="0b_3PiCQGs7h8GOq9YjQ-81" value="S/4HC" style="shape=umlLifeline;perimeter=lifelinePerimeter;whiteSpace=wrap;html=1;container=0;dropTarget=0;collapsible=0;recursiveResize=0;outlineConnect=0;portConstraint=eastwest;newEdgeStyle={&quot;edgeStyle&quot;:&quot;elbowEdgeStyle&quot;,&quot;elbow&quot;:&quot;vertical&quot;,&quot;curved&quot;:0,&quot;rounded&quot;:0};" parent="1" vertex="1">
          <mxGeometry x="1410" y="130" width="100" height="690" as="geometry" />
        </mxCell>
        <mxCell id="0b_3PiCQGs7h8GOq9YjQ-83" value="" style="edgeStyle=elbowEdgeStyle;rounded=0;orthogonalLoop=1;jettySize=auto;html=1;elbow=vertical;curved=0;" parent="1" edge="1">
          <mxGeometry relative="1" as="geometry">
            <mxPoint x="1195" y="719" as="sourcePoint" />
            <mxPoint x="1321" y="719" as="targetPoint" />
          </mxGeometry>
        </mxCell>
        <mxCell id="0b_3PiCQGs7h8GOq9YjQ-84" value="8.c: inbound UBL" style="edgeLabel;html=1;align=center;verticalAlign=middle;resizable=0;points=[];" parent="0b_3PiCQGs7h8GOq9YjQ-83" vertex="1" connectable="0">
          <mxGeometry relative="1" as="geometry">
            <mxPoint y="1" as="offset" />
          </mxGeometry>
        </mxCell>
        <mxCell id="0b_3PiCQGs7h8GOq9YjQ-85" value="" style="edgeStyle=elbowEdgeStyle;rounded=0;orthogonalLoop=1;jettySize=auto;html=1;elbow=vertical;curved=0;" parent="1" edge="1">
          <mxGeometry relative="1" as="geometry">
            <mxPoint x="1195" y="699" as="sourcePoint" />
            <mxPoint x="1321" y="699" as="targetPoint" />
            <Array as="points">
              <mxPoint x="1270" y="699" />
            </Array>
          </mxGeometry>
        </mxCell>
        <mxCell id="0b_3PiCQGs7h8GOq9YjQ-86" value="8.b: enrichment UBL&amp;nbsp;" style="edgeLabel;html=1;align=center;verticalAlign=middle;resizable=0;points=[];" parent="0b_3PiCQGs7h8GOq9YjQ-85" vertex="1" connectable="0">
          <mxGeometry relative="1" as="geometry">
            <mxPoint y="1" as="offset" />
          </mxGeometry>
        </mxCell>
        <mxCell id="0b_3PiCQGs7h8GOq9YjQ-87" value="" style="edgeStyle=elbowEdgeStyle;rounded=0;orthogonalLoop=1;jettySize=auto;html=1;elbow=horizontal;curved=0;" parent="1" edge="1">
          <mxGeometry relative="1" as="geometry">
            <mxPoint x="1193.75" y="631" as="sourcePoint" />
            <mxPoint x="1458.25" y="631" as="targetPoint" />
            <Array as="points">
              <mxPoint x="1258.75" y="631" />
            </Array>
          </mxGeometry>
        </mxCell>
        <mxCell id="0b_3PiCQGs7h8GOq9YjQ-88" value="8.a: simulate" style="edgeLabel;html=1;align=center;verticalAlign=middle;resizable=0;points=[];" parent="0b_3PiCQGs7h8GOq9YjQ-87" vertex="1" connectable="0">
          <mxGeometry x="-0.1447" y="-1" relative="1" as="geometry">
            <mxPoint as="offset" />
          </mxGeometry>
        </mxCell>
        <mxCell id="0b_3PiCQGs7h8GOq9YjQ-93" value="" style="edgeStyle=elbowEdgeStyle;rounded=0;orthogonalLoop=1;jettySize=auto;html=1;elbow=vertical;curved=0;dashed=1;" parent="1" edge="1">
          <mxGeometry relative="1" as="geometry">
            <mxPoint x="1321" y="790" as="sourcePoint" />
            <mxPoint x="1195" y="790" as="targetPoint" />
          </mxGeometry>
        </mxCell>
      </root>
    </mxGraphModel>
  </diagram>
</mxfile>
